<svg width="41" height="54" viewBox="0 0 41 54" fill="none" xmlns="http://www.w3.org/2000/svg">
<path d="M32.9672 2.38671C35.682 1.16671 38.9026 0.851944 40.2344 0.846008H0.234375V52.346C0.234375 51.346 0.495399 50.1648 0.694619 49.5413C0.80564 49.1939 1.04803 48.5119 1.44739 47.7601C1.86863 46.9671 2.18408 46.5571 2.58951 46.0477C3.14796 45.346 4.15425 44.471 4.69824 44.1297C5.09619 43.88 5.76901 43.4007 6.96252 42.9632C8.08358 42.5523 9.14283 42.346 10.6874 42.346C12.1693 42.346 13.4801 41.9241 13.9871 41.7288C14.451 41.5501 15.8034 41.008 17.0774 39.9259C18.3514 38.8439 19.1094 37.6326 19.4008 37.1155C19.8962 36.2366 20.177 35.4124 20.3933 34.6371C20.5624 34.0308 20.6994 33.0023 20.6994 32.3577V29.9394V24.1298C20.7269 22.0843 20.645 20.5257 20.7831 19.043C20.9292 17.4743 21.234 16.1898 21.4212 15.514C21.7809 14.2156 22.2834 12.8582 22.9495 11.6351L22.9613 11.6134C23.7255 10.2103 24.1463 9.43753 25.5774 7.7696C26.0287 7.24367 27.2223 5.95284 28.7732 4.77445C29.7603 4.02451 31.3496 3.11369 32.9672 2.38671Z" fill="white"/>
</svg>
