<svg width="72" height="62" viewBox="0 0 72 62" fill="none" xmlns="http://www.w3.org/2000/svg">
<path d="M64.9055 1.56714C66.3553 1.10583 68.6318 0.870017 69.5488 0.828857H0.553961C0.553961 21.4955 0.529228 62.6285 0.553961 61.8289C0.588338 60.7175 0.63846 59.8742 0.964118 58.3518C1.255 56.992 1.60348 55.5181 2.46019 53.7882C3.3169 52.0583 4.54249 50.1664 5.60936 49.0268C6.65625 47.9086 8.15433 46.1842 11.9177 44.2861C14.9462 42.7585 18.6695 42.2759 20.5542 42.3379C23.3812 42.3434 29.1999 42.3511 29.8589 42.3379C30.6827 42.3215 33.6176 42.2885 36.2701 41.4483C38.9226 40.608 40.9148 39.323 42.1669 38.4333C43.419 37.5437 44.5711 36.4233 45.8727 34.9076C47.1742 33.3919 47.5705 32.354 48.559 30.5582C49.5475 28.7624 49.86 26.357 50.0248 25.7145C50.1895 25.072 50.1912 24.2647 50.2876 23.1938C50.3841 22.1229 50.2712 21.1674 50.2876 20.5413C50.3041 19.9152 50.3722 18.6961 50.504 17.9053C50.6358 17.1145 50.8831 16.1095 51.1467 15.0386C51.4103 13.9677 52.2006 12.2049 52.8267 11.101C53.4527 9.9972 54.5086 8.33321 55.5136 7.32822C56.5186 6.32324 57.5047 5.31825 59.4487 4.01671C61.3928 2.71518 63.0933 2.14377 64.9055 1.56714Z" fill="white"/>
</svg>
