<?xml version="1.0" encoding="utf-8"?><svg viewBox="0 0 250 105" xmlns="http://www.w3.org/2000/svg" xmlns:xlink="http://www.w3.org/1999/xlink"><style>:root>svg{display:none}:root>svg:target{display:block}</style><svg viewBox="0 0 18 18" id="alarm" xmlns="http://www.w3.org/2000/svg"><path d="M9 7v3h2.065M3.839 1 1 3m13.161-2L17 3m-.774 7c0 3.866-3.235 7-7.226 7-3.99 0-7.226-3.134-7.226-7S5.01 3 9 3c3.99 0 7.226 3.134 7.226 7Z"/></svg><svg viewBox="0 0 40 40" id="arrow" xmlns="http://www.w3.org/2000/svg"><path d="m10 15 10 10 10-10"/></svg><svg viewBox="0 0 60 60" id="close-btn" xmlns="http://www.w3.org/2000/svg"><path d="m20 20 20.02 20m0-20L20 40m38-10c0 15.464-12.536 28-28 28S2 45.464 2 30 14.536 2 30 2s28 12.536 28 28Z"/></svg><svg viewBox="0 0 16 18" id="mark" xmlns="http://www.w3.org/2000/svg"><path d="M8 10.521c1.45 0 2.625-1.162 2.625-2.597C10.625 6.49 9.45 5.328 8 5.328S5.375 6.49 5.375 7.924c0 1.435 1.175 2.597 2.625 2.597Z"/><path d="m12.95 12.82-3.713 3.674a1.76 1.76 0 0 1-2.473 0L3.05 12.82a6.902 6.902 0 0 1-1.916-3.546 6.855 6.855 0 0 1 .399-4A6.941 6.941 0 0 1 4.11 2.167 7.054 7.054 0 0 1 8 1c1.384 0 2.738.406 3.889 1.167a6.941 6.941 0 0 1 2.578 3.108 6.855 6.855 0 0 1 .399 4 6.901 6.901 0 0 1-1.916 3.546Z"/></svg><svg viewBox="0 0 100 28" id="maxocom" xmlns="http://www.w3.org/2000/svg"><path fill-rule="evenodd" clip-rule="evenodd" d="M13.017.257a1.921 1.921 0 0 0-1.921 0L.96 6.11C.366 6.452 0 7.086 0 7.773v11.703c0 .686.366 1.32.96 1.664l10.136 5.851a1.921 1.921 0 0 0 1.921 0l10.135-5.851a1.92 1.92 0 0 0 .96-1.664V7.773a1.92 1.92 0 0 0-.96-1.664L13.017.257ZM3.615 8.883l-.088 8.939a.307.307 0 0 0 .146.265l3.015 1.85a.307.307 0 0 0 .469-.262v-3.788c0-.29.364-.42.546-.194l3.452 4.269a.307.307 0 0 0 .546-.193V13.78c0-.104-.052-.2-.139-.257l-7.47-4.895a.307.307 0 0 0-.477.254Zm16.883 0 .088 8.939a.307.307 0 0 1-.146.265l-3.015 1.85a.307.307 0 0 1-.469-.262v-3.788a.307.307 0 0 0-.546-.194l-3.451 4.269a.307.307 0 0 1-.547-.193V13.78c0-.104.052-.2.139-.257l7.47-4.895a.307.307 0 0 1 .477.254Z"/><path d="M31.896 18.238h-2.01v-8.89h2.022l2.714 3.747 2.564-3.747h1.897v8.89h-2.01v-5.664l-2.45 3.467h-.29l-2.437-3.43v5.627Zm10.971 0h-2.023l3.656-8.89h1.797l3.657 8.89h-2.149l-.729-1.867h-3.48l-.73 1.867Zm3.455-3.772-.98-2.514-.992 2.514h1.972Zm10.249-5.118h2.363l-2.815 4.356 2.928 4.534h-2.363L54.8 15.254l-1.86 2.984h-2.362l2.928-4.534-2.79-4.356h2.363l1.784 2.857 1.71-2.857Zm3.15 4.445c0-1.312.432-2.405 1.295-3.277.87-.88 1.998-1.32 3.38-1.32 1.374 0 2.492.419 3.355 1.257.88.838 1.32 1.952 1.32 3.34 0 1.338-.445 2.439-1.333 3.302-.88.864-1.993 1.296-3.342 1.296-1.366 0-2.488-.42-3.368-1.258-.871-.838-1.307-1.951-1.307-3.34Zm2.137 0c0 .754.247 1.393.74 1.918a2.37 2.37 0 0 0 1.798.775c.804 0 1.428-.25 1.872-.75.444-.516.666-1.164.666-1.943 0-.804-.243-1.452-.729-1.943a2.448 2.448 0 0 0-1.81-.75c-.736 0-1.344.25-1.821.75-.478.5-.716 1.147-.716 1.943Zm15.559 2.045.766 1.524c-.268.305-.666.555-1.194.75a4.915 4.915 0 0 1-1.67.279c-1.366 0-2.476-.42-3.33-1.258-.855-.855-1.282-1.968-1.282-3.34 0-1.338.402-2.438 1.206-3.302.804-.864 1.935-1.296 3.393-1.296.553 0 1.068.085 1.545.254.478.17.859.394 1.144.674l-.892 1.524c-.587-.364-1.186-.546-1.797-.546-.712 0-1.303.237-1.772.71-.46.466-.691 1.127-.691 1.982 0 .78.247 1.427.741 1.943.494.5 1.135.75 1.923.75.703 0 1.34-.216 1.91-.648Zm1.771-2.045c0-1.312.432-2.405 1.295-3.277.87-.88 1.998-1.32 3.38-1.32 1.374 0 2.492.419 3.355 1.257.88.838 1.32 1.952 1.32 3.34 0 1.338-.445 2.439-1.333 3.302-.88.864-1.993 1.296-3.342 1.296-1.366 0-2.488-.42-3.368-1.258-.871-.838-1.307-1.951-1.307-3.34Zm2.137 0c0 .754.247 1.393.74 1.918a2.37 2.37 0 0 0 1.798.775c.804 0 1.428-.25 1.872-.75.444-.516.666-1.164.666-1.943 0-.804-.243-1.452-.729-1.943a2.448 2.448 0 0 0-1.81-.75c-.736 0-1.344.25-1.821.75-.478.5-.716 1.147-.716 1.943Zm11.487 4.445h-2.01v-8.89h2.023l2.714 3.747 2.564-3.747H100v8.89h-2.01v-5.664l-2.45 3.467h-.29l-2.438-3.43v5.627Z"/></svg><svg viewBox="0 0 18 18" id="phone" xmlns="http://www.w3.org/2000/svg"><path d="M11.667 4.556a1.778 1.778 0 0 1 1.777 1.777M11.667 1A5.333 5.333 0 0 1 17 6.333M2.778 1.89h3.555l1.778 4.444L5.89 7.667a9.778 9.778 0 0 0 4.444 4.444l1.334-2.222 4.444 1.778v3.555A1.778 1.778 0 0 1 14.333 17 14.222 14.222 0 0 1 1 3.667a1.778 1.778 0 0 1 1.778-1.778Z"/></svg><svg viewBox="0 0 80 74" id="services-1" xmlns="http://www.w3.org/2000/svg"><path d="M0 16.818 20 18.5v3.365l-20 1.68v-6.726Zm0 17.448 20.342-7.715 1.408 3.048L2.817 40.363 0 34.266ZM2.817 0 21.75 10.763l-1.408 3.05L0 6.097 2.817 0Zm60.516 3.363c-2.256 0-4.417.46-6.38 1.288l-13.011 5.44H33.333v3.363H25V26.91h8.333v3.364h10.599L50 32.808v5.874h-5v5.045h5V74h10l10-13.455V35.58a16.809 16.809 0 0 0 10-15.4c0-9.289-7.461-16.818-16.667-16.818Zm0 54.939-6.666 8.97V35.593l.286.121A16.44 16.44 0 0 0 63.333 37v21.302Zm0-28.03a9.808 9.808 0 0 1-3.818-.768l-14.258-5.96H40v-6.726h5.267l14.238-5.951a9.77 9.77 0 0 1 3.828-.776c2.943 0 5.566 1.314 7.399 3.363h-9.065V18.5h11.497c.091.55.169 1.105.169 1.682 0 .576-.078 1.13-.169 1.682H61.667v5.045h9.065c-1.833 2.05-4.456 3.364-7.399 3.364Z"/></svg><svg viewBox="0 0 80 80" id="services-2" xmlns="http://www.w3.org/2000/svg"><path d="M78.448 27.618 74.47 23.64a5.303 5.303 0 0 0-5.002-1.403 5.303 5.303 0 0 0-1.404-5.002l-8.629-8.63a5.294 5.294 0 0 0-2.865-1.478 5.295 5.295 0 0 0-1.479-2.865l-2.709-2.71a5.302 5.302 0 0 0-7.497 0l-27.128 27.13a5.301 5.301 0 0 0 0 7.497l5.778 5.778a2.499 2.499 0 0 1 .72 2.05 2.51 2.51 0 0 1-1.152 1.85C5.883 56.831 4.265 58.45 3.574 59.14c-4.765 4.765-4.766 12.52 0 17.285 4.766 4.766 12.52 4.766 17.286 0 .69-.69 2.308-2.308 13.285-19.53a2.504 2.504 0 0 1 1.847-1.146 2.5 2.5 0 0 1 2.053.716l5.778 5.777a5.302 5.302 0 0 0 7.497 0l27.128-27.127a5.302 5.302 0 0 0 0-7.498ZM47.572 58.495l-5.778-5.778a7.817 7.817 0 0 0-6.38-2.237 7.816 7.816 0 0 0-5.739 3.568c-4.865 7.633-10.994 17.06-12.564 18.63a6.921 6.921 0 0 1-9.788-9.788c1.57-1.57 10.997-7.699 18.63-12.564a7.815 7.815 0 0 0 1.33-12.119l-5.777-5.778 4.213-4.213 26.066 26.066-4.213 4.213Zm7.965-7.965L29.47 24.463 48.634 5.302l2.708 2.708-3.025 6.711a.603.603 0 0 0 .123.674l.006.006a.602.602 0 0 0 .682.111l6.559-3.158 8.629 8.63-11.538 17.195a.603.603 0 0 0 .074.763h.001a.602.602 0 0 0 .764.072L70.72 27.389l3.978 3.978-19.162 19.162Z"/></svg><svg viewBox="0 0 80 69" id="services-3" xmlns="http://www.w3.org/2000/svg"><path d="M17.929 16.947h12.22v5.127H17.93v-5.127Zm0 11.658h12.22v5.127H17.93v-5.127Zm0 11.658h12.22v5.126H17.93v-5.127Zm0 11.657h12.22v5.127H17.93V51.92Z"/><path d="M42.643 63.873v-41.89l26.793-.03v28.259h5.128V19.386c0-1.398-1.17-2.563-2.567-2.563l-31.921.037a2.564 2.564 0 0 0-2.562 2.563v44.45h-26.95V13.15l26.95-7.244v5.82h5.129V2.56c0-1.658-1.626-2.906-3.23-2.475L7.334 8.708a2.566 2.566 0 0 0-1.898 2.476v52.69H0V69h80v-5.127H42.643Z"/><path d="M69.436 54.826h5.128V59.6h-5.128v-4.775ZM49.85 28.605h12.221v5.127h-12.22v-5.127Zm0 11.658h12.221v5.126h-12.22v-5.127Zm0 11.657h12.221v5.127h-12.22V51.92Z"/></svg><svg viewBox="0 0 86 86" id="services-4" xmlns="http://www.w3.org/2000/svg"><path d="M7.98 13.178a4.98 4.98 0 1 0 0-9.958 4.98 4.98 0 0 0 0 9.958Zm0 0-.001 9.96m70.043-9.96v9.96m-4.98 55.103H12.959m0-50.125h15.104S34.75 23.137 43 23.137s14.937 4.98 14.937 4.98h15.104M28.062 85.71V20.647m29.875 0V85.71M43 15.668V48.2m0 9.959V85.71m-30.041-2.49H3V23.137h9.959V83.22ZM82.999 8.2a4.98 4.98 0 1 1-9.958 0A4.98 4.98 0 0 1 83 8.2Zm0 75.02h-9.958V23.137H83V83.22ZM47.98 58.158h-9.958v-9.959h9.958v9.959Z"/></svg><svg viewBox="0 0 50 50" id="tg" xmlns="http://www.w3.org/2000/svg"><g fill-rule="evenodd" clip-rule="evenodd"><path d="M25 48c12.703 0 23-10.297 23-23S37.703 2 25 2 2 12.297 2 25s10.297 23 23 23Zm0 2c13.807 0 25-11.193 25-25S38.807 0 25 0 0 11.193 0 25s11.193 25 25 25Z"/><path d="m15.375 24.318 10.74-4.745c5.114-2.181 6.177-2.56 6.87-2.573.152-.003.493.036.713.22.187.155.238.364.262.511.025.147.055.482.031.744-.277 2.987-1.476 10.235-2.086 13.58-.259 1.416-.767 1.89-1.259 1.937-1.07.1-1.881-.725-2.917-1.422l-4.11-2.831c-1.819-1.23-.64-1.905.396-3.009.272-.289 4.984-4.685 5.075-5.083.01-.05.022-.236-.086-.334-.108-.098-.267-.064-.381-.038-.163.038-2.752 1.793-7.768 5.266-.735.518-1.4.77-1.997.757-.658-.015-1.923-.382-2.863-.695-1.153-.385-2.07-.588-1.99-1.241.041-.34.498-.688 1.37-1.044Z"/></g></svg><svg viewBox="0 0 250 43" id="trust-fodd" xmlns="http://www.w3.org/2000/svg"><path fill-rule="evenodd" clip-rule="evenodd" d="M33.708 0H25.28v1.91H7.022C3.144 1.91 0 5.117 0 9.073v24.593c0 3.956 3.144 7.163 7.022 7.163h18.259V42.5h8.427v-1.671h18.258c3.879 0 7.023-3.207 7.023-7.163V9.073c0-3.956-3.144-7.163-7.023-7.163H33.708V0ZM25.28 10.744H8.895v21.25h16.386v-21.25Zm8.427 21.25v-21.25h16.62v21.25h-16.62ZM76.31 1.91c-3.878 0-7.022 3.207-7.022 7.163v24.593c0 3.956 3.144 7.163 7.023 7.163h37.921c3.879 0 7.023-3.207 7.023-7.163V9.073c0-3.956-3.144-7.163-7.023-7.163H76.311Zm35.815 8.834H78.183v21.25h33.942v-21.25Zm19.897-1.671c0-3.956 3.145-7.163 7.023-7.163h36.517c3.878 0 7.022 3.207 7.022 7.163v22.921h3.043v8.835h-56.414v-8.835h2.809V9.073Zm8.427 22.921h33.942v-21.25h-33.942v21.25Zm55.946-22.921c0-3.956 3.144-7.163 7.023-7.163h36.516c3.879 0 7.023 3.207 7.023 7.163v22.921H250v8.835h-56.414v-8.835h2.809V9.073Zm8.427 22.921h33.942v-21.25h-33.942v21.25Z"/></svg><svg viewBox="0 0 90 40" id="trust-rzhd-1" xmlns="http://www.w3.org/2000/svg"><path d="M63.264 3.56v1.45h12.427c.829 0 2.072 0 2.888.828.815.829.828 2.071.828 2.887v12.427c0 .829 0 2.071-.828 2.887-.829.829-2.072.829-2.888.829h-6c-1.034 0-2.382 0-2.887-1.14-.517-1.14.207-2.174.829-3.013l8.084-10.77H63.29l-4.971 6.628c-.834 1.11-1.554 2.071-1.554 3.314 0 1.243.67 2.136 1.554 3.314l1.242 1.657c1.243 1.657 2.486 3.314 4.143 4.142 1.657.828 3.615.828 6.326.828h5.373c3.113 0 7.757 0 10.87-3.113 3.113-3.113 3.113-7.657 3.113-9.313V12.43c0-1.657 0-6.201-3.113-9.314C83.16.003 78.516.003 75.403.003L66.817 0c-.829 0-1.863 0-2.686.828-.829.829-.829 1.863-.829 2.687"/><path d="M48.453 9.987h12.3L45.943 29.92H33.641L48.453 9.987ZM0 13.502c0-.829 0-1.863.828-2.687.829-.823 1.863-.828 2.687-.828h20.812c2.686 0 4.67 0 6.326.829 1.657.828 2.887 2.485 4.142 4.142l1.243 1.657c.881 1.175 1.554 2.07 1.554 3.314 0 1.242-.72 2.204-1.554 3.313l-4.97 6.628H18.64l8.084-10.77c.62-.828 1.346-1.863.829-3.013-.518-1.14-1.863-1.14-2.887-1.14h-9.741v24.855H4.983V14.948H.013v-1.451"/></svg><svg viewBox="0 0 152 30" id="trust-rzhd-2" xmlns="http://www.w3.org/2000/svg"><path d="M3.174 22.406c-.746 1.014-1.507 2.013-2.252 3.012v.568h2.101c1.03-1.371 1.567-2.087 1.567-2.913h2.058v2.913h1.969v-2.913h2.058c0 .821.537 1.537 1.567 2.913h2.101v-.568l-2.267-3.012c1.908-1.431 1.908-1.431 1.908-3.314v-.625h-2.146v.625c0 2.282 0 2.282-2.237 2.282h-.984v-2.912H6.648v2.912h-.984c-2.237 0-2.237 0-2.237-2.282v-.625H1.281v.625c0 1.878 0 1.878 1.893 3.314Z"/><path fill-rule="evenodd" clip-rule="evenodd" d="M18.237 21.401c0-1.654 0-1.654 1.832-1.654 1.833 0 1.833 0 1.833 1.654h-3.665Zm0 1.341h1.832c1.923-.015 2.49.015 3.139-.134l.76-.179v-.73c0-1.238 0-3.566-3.54-3.566h-.715c-3.54 0-3.54 2.325-3.54 3.59v.716c0 1.34.03 3.59 3.917 3.59.582 0 1.892 0 3.313-.357v-1.609h-.401l-1.431.357h-1.522c-1.832 0-1.832 0-1.832-1.655l.02-.023Z"/><path d="M27.274 18.339c0 1.132-.089 4.544-1.877 6.929v.582h2.191c1.298-1.73 1.298-3.992 1.298-5.85h3.088v5.85h1.968v-7.506H27.29"/><path fill-rule="evenodd" clip-rule="evenodd" d="M38.32 21.401c0-1.654 0-1.654 1.836-1.654 1.833 0 1.833 0 1.833 1.654h-3.666m0 1.341h1.835c1.923-.015 2.49.015 3.139-.134l.76-.179v-.73c0-1.238 0-3.566-3.54-3.566h-.715c-3.54 0-3.54 2.325-3.54 3.59v.716c0 1.34.03 3.59 3.916 3.59.583 0 1.893 0 3.314-.357v-1.609h-.401l-1.431.357h-1.522c-1.832 0-1.832 0-1.832-1.655l.017-.023Z"/><path d="M51.375 22.155v-.224c1.522-.387 1.522-1.326 1.522-1.685 0-.715 0-2.146-3.615-2.146-.538 0-1.79 0-3.214.359v1.61h.402l1.43-.36h1.655c1.148 0 1.208 0 1.208.834 0 .82 0 .82-1.208.82h-1.654v1.341h1.654c1.148 0 1.208 0 1.208.821 0 .836 0 .836-1.208.836h-1.654l-1.431-.359h-.402v1.61c1.431.356 2.686.356 3.214.356 3.615 0 3.615-1.431 3.615-2.147 0-.356 0-1.295-1.522-1.67m9.791-3.812v2.811H57.15v-2.81h-2.008v7.581h2.008v-3.012h4.017v3.012h1.758V18.34h-1.758Z"/><path fill-rule="evenodd" clip-rule="evenodd" d="M69.2 22.155c1.566 0 1.566 0 1.566 1.162s0 1.162-1.566 1.162h-1.567v-2.324H69.2Zm7.03-3.766h-1.97v7.506h1.97V18.39Zm-6.754 7.506c2.37 0 3.364-.522 3.364-2.56 0-1.118 0-2.737-3.088-2.737-.447 0-1.207.045-2.101.269V18.36h-1.968v7.507h3.79l.003.027Zm11.272-4.494c0-1.654 0-1.654 1.833-1.654 1.832 0 1.832 0 1.832 1.654h-3.665Zm0 1.341h1.833c1.923-.015 2.49.015 3.138-.134l.76-.179v-.73c0-1.238 0-3.566-3.54-3.566h-.715c-3.54 0-3.54 2.325-3.54 3.59v.716c0 1.34.03 3.59 3.917 3.59.582 0 1.893 0 3.314-.357v-1.609h-.402l-1.431.357h-1.521c-1.833 0-1.833 0-1.833-1.655l.02-.023Zm13.808-.838c0-2.014 0-1.969 2.66-1.969.36 0 .852.045 1.447.179v3.213l-1.908.477c-2.207 0-2.207 0-2.207-1.907m-1.162 5.196v1.7c1.43.359 2.586.359 3.038.359 4.067 0 4.192-1.76 4.192-3.766v-6.98h-.643l-.954.716c-.655-.85-2.252-.878-2.761-.878-3.791 0-3.791 2.385-3.791 3.464v.36c0 1.252 0 3.313 3.213 3.313.97 0 2.117-.269 2.963-.894v.625c0 2.31-.045 2.325-2.415 2.325h-1.03l-1.43-.359h-.402l.02.015Zm13.22-8.93c-3.791 0-3.791 2.237-3.791 3.59v.715c0 1.341 0 3.59 3.791 3.59h.716c3.79 0 3.79-2.236 3.79-3.59v-.715c0-1.34 0-3.59-3.79-3.59h-.716Zm.357 1.654c2.101 0 2.101 0 2.101 2.282s0 2.282-2.101 2.282c-2.102 0-2.102 0-2.102-2.282s0-2.282 2.102-2.282Zm12.447 2.338c0 2.236 0 2.236-2.192 2.236-.537 0-1.223 0-1.923-.179v-3.765l1.908-.477c2.207 0 2.207.03 2.207 2.176m-6.076-3.765v10.544h1.968V25.66c.894.224 1.61.402 2.687.402 3.489 0 3.489-2.561 3.489-3.59v-.716c0-1.253 0-3.59-3.263-3.59-1.67 0-2.636.73-3.164 1.132l-.715-.954h-.984l-.018.036Zm14.109-.218c-3.791 0-3.791 2.237-3.791 3.59v.715c0 1.341 0 3.59 3.791 3.59h.716c3.791 0 3.791-2.236 3.791-3.59v-.715c0-1.34 0-3.59-3.791-3.59h-.716Zm.357 1.654c2.101 0 2.101 0 2.101 2.282s0 2.282-2.101 2.282c-2.102 0-2.102 0-2.102-2.282s0-2.282 2.102-2.282Z"/><path d="M137.736 18.163c-.715 0-1.654 0-3.088.359v1.61h.402l1.431-.357h1.833c.984 0 .984 0 .984.567 0 .387 0 .507-.761.64l-1.79.447c-1.029.254-2.46.64-2.46 2.192 0 1.029 0 2.415 3.615 2.415.715 0 1.654 0 3.088-.357V24.07h-.402c-.597.164-1.162.299-1.386.36h-1.877c-.985 0-.985 0-.985-.568 0-.342 0-.417.417-.538l.999-.268 1.133-.284c1.029-.253 2.46-.625 2.46-2.191 0-1.03 0-2.416-3.615-2.416m12.806 8.006 1.461-1.09c-.537-.715-.537-.715-.537-1.982v-4.645h-1.969v5.448l-1.908.477c-2.028 0-2.028 0-2.028-2.071v-3.866h-1.968v4.167c0 1.476 0 3.54 2.987 3.54 1.567 0 2.536-.73 3.063-1.133l.879 1.163"/><path fill-rule="evenodd" clip-rule="evenodd" d="M1.416.389v10.544h2.147V8.02h1.7c2.912 0 5.196 0 5.196-3.815C10.46.363 8.177.363 5.263.363H1.42m2.147 5.775V2.246h2.586c1.923 0 2.013 0 2.013 1.953 0 1.893 0 1.939-2.013 1.939H3.568Zm12.41-2.888c-3.79 0-3.79 2.237-3.79 3.59v.716c0 1.34 0 3.59 3.79 3.59h.716c3.79 0 3.79-2.237 3.79-3.59v-.715c0-1.341 0-3.59-3.79-3.59h-.716Zm.357 1.655c2.101 0 2.101 0 2.101 2.282s0 2.282-2.101 2.282-2.101 0-2.101-2.282 0-2.282 2.1-2.282Z"/><path d="M26.27 11.133c.538 0 1.923 0 3.364-.358v-1.61h-.401l-1.446.357h-.849c-2.49 0-2.49 0-2.49-2.325s0-2.325 1.832-2.325c1.552 0 1.552 0 1.923 1.476l1.79-.446c0-.716 0-2.636-3.364-2.636h-.715c-3.54 0-3.54 2.236-3.54 3.59v.715c0 1.34 0 3.59 3.891 3.59m9.545-.028c.537 0 1.923 0 3.364-.358v-1.61h-.401l-1.447.357h-.848c-2.49 0-2.49 0-2.49-2.325s0-2.325 1.832-2.325c1.552 0 1.552 0 1.923 1.476l1.79-.446c0-.716 0-2.636-3.364-2.636h-.715c-3.54 0-3.54 2.236-3.54 3.59v.715c0 1.34 0 3.59 3.891 3.59m12.558-.002 1.46-1.09c-.537-.715-.537-.715-.537-1.983V3.44h-1.968v5.45l-1.908.477c-2.028 0-2.028 0-2.028-2.071V3.429h-1.968v4.167c0 1.476 0 3.54 2.987 3.54 1.567 0 2.536-.73 3.063-1.132l.879 1.162"/><path fill-rule="evenodd" clip-rule="evenodd" d="M55.392.765c-.969 0-.969 0-1.446-.537l-.864.67c.94 1.208 1.416 1.298 2.787 1.298h.329c1.356 0 1.848-.09 2.761-1.298l-.863-.67c-.462.537-.462.537-1.446.537h-1.268m3.64 10.419 1.461-1.09c-.537-.715-.537-.715-.537-1.983V3.466h-1.968v5.448l-1.908.477c-1.983 0-2.029 0-2.029-2.071V3.454h-1.968V7.62c0 1.476 0 3.54 2.988 3.54 1.566 0 2.535-.73 3.063-1.132l.878 1.162.02-.007Z"/><path d="M66.187 11.133c.537 0 1.923 0 3.364-.358v-1.61h-.401l-1.447.357h-.85c-2.491 0-2.491 0-2.491-2.325s0-2.325 1.833-2.325c1.551 0 1.551 0 1.923 1.476l1.79-.446c0-.716 0-2.636-3.364-2.636h-.716c-3.54 0-3.54 2.236-3.54 3.59v.715c0 1.34 0 3.59 3.892 3.59m6.032-7.71v7.507h1.969V8.046h2.415c0 .82.537 1.536 1.564 2.912h2.101v-.568l-2.267-3.012c1.908-1.431 1.908-1.431 1.908-3.314v-.625h-2.147v.625c0 2.282 0 2.282-2.236 2.282h-1.34V3.434h-1.97m17.075 7.725 1.46-1.09c-.536-.715-.536-.715-.536-1.983V3.44h-1.969v5.45l-1.908.477c-2.028 0-2.028 0-2.028-2.071V3.429h-1.968v4.167c0 1.476 0 3.54 2.987 3.54 1.567 0 2.536-.73 3.063-1.132l.879 1.162"/><path fill-rule="evenodd" clip-rule="evenodd" d="M94.556 6.514c0-1.654 0-1.654 1.835-1.654 1.833 0 1.833 0 1.833 1.654h-3.666m0 1.34h1.835c1.924-.014 2.49.016 3.139-.134l.76-.178v-.73c0-1.239 0-3.566-3.54-3.566h-.715c-3.54 0-3.54 2.325-3.54 3.59v.716c0 1.34.03 3.59 3.916 3.59.583 0 1.893 0 3.314-.36V9.175h-.401l-1.431.356h-1.522c-1.835 0-1.835 0-1.835-1.654l.02-.021Z"/></svg><svg viewBox="0 0 230 105" id="trust-tellur" xmlns="http://www.w3.org/2000/svg"><path fill-rule="evenodd" clip-rule="evenodd" d="M71.856 23.182v-2.273l25.37-7.424 13.976 3.94v2.878l30.383-7.273V2.88l-30.383 8.94V9.09L141.585 0l17.622 7.273v65.303h21.496a2.503 2.503 0 0 1 2.507 2.5c0 1.38-1.122 2.5-2.507 2.5H57.044a2.503 2.503 0 0 1-2.506-2.5c0-1.381 1.122-2.5 2.506-2.5h39.878v-6.97l-24.914 1.06V62.88l24.914-1.212v-8.485l-24.914 2.576v-3.94l24.914-2.879v-8.181l-24.914 4.09v-4.09l24.914-4.091v-8.334l-24.914 5.455L71.856 30l25.066-5.91v-8.18l-25.066 7.272ZM111.202 25v8.788l30.383-5.455v-9.848L111.202 25Zm0 13.333v8.788l30.383-3.485V33.485l-30.383 4.848Zm0 22.273v-8.788l30.383-3.03v10l-30.383 1.818Zm0 4.394v7.424h30.383V63.94L111.202 65Z"/><path d="M12.246 85.303c-1.332 0-2.38.478-3.429 2.476l-8.7 16.461c-.226.45-.141.76.397.76h4.42c.398 0 .596-.113.738-.394l1.7-3.292H19.67l1.729 3.292c.17.281.34.394.737.394h4.307c.567 0 .652-.31.397-.76l-8.842-16.46c-1.076-1.999-2.068-2.477-3.769-2.477h-1.983Zm.822 4.924c.113-.14.198-.197.34-.197h.141c.142 0 .227.057.312.197l3.797 7.232H9.356l3.712-7.232Zm22.74-4.924c-5.81 0-8.02 2.026-8.02 7.429v4.84c0 5.402 2.21 7.428 8.02 7.428h12.808c.482 0 .737-.253.737-.732v-3.292c0-.478-.255-.731-.737-.731h-12.61c-2.465 0-3.06-.648-3.06-3.18v-3.827c0-2.532.595-3.18 3.06-3.18h12.61c.482 0 .737-.253.737-.731v-3.292c0-.479-.255-.732-.737-.732H35.808Zm17.213 0c-.482 0-.737.253-.737.732v18.233c0 .479.255.732.737.732h3.684c.482 0 .737-.253.737-.732v-7.316h2.21c1.389 0 1.87.197 2.494 1.041l5.015 6.613c.199.281.34.394.907.394h4.336c.651 0 .595-.619.425-.844l-5.696-7.26c-.68-.872-1.303-1.547-2.04-2.026.481-.422.935-1.013 1.502-1.745l5.469-7.062c.198-.282.141-.76-.397-.76h-4.25c-.567 0-.709.113-.936.394l-4.732 6.387c-.652.9-1.134 1.041-2.494 1.041h-1.813v-7.09c0-.479-.255-.732-.737-.732H53.02Zm31.215 0c-.51 0-.737.253-.737.732v3.292c0 .478.226.731.737.731h8.5v14.21c0 .479.256.732.766.732h3.655c.482 0 .737-.253.737-.732v-14.21h8.53c.481 0 .736-.253.736-.731v-3.292c0-.479-.255-.732-.736-.732H84.235Zm27.061 0c-1.219 0-1.757.675-1.757 1.52v16.658c0 1.125.538 1.519 1.757 1.519h18.759c.482 0 .737-.253.737-.732v-3.151c0-.507-.255-.732-.737-.732h-15.104c-.255 0-.396-.169-.396-.45v-2.842h15.33c.51 0 .737-.225.737-.731v-2.59c0-.506-.227-.73-.737-.73h-15.33V90.34c0-.282.141-.394.396-.394h15.104c.482 0 .737-.253.737-.76v-3.151c0-.479-.255-.732-.737-.732h-18.759Zm30.783 0c-1.984 0-2.522 1.07-2.721 2.617-.68 5.543-1.048 8.413-1.643 10.27-.567 1.745-1.275 2.055-1.927 2.055h-2.295c-.51 0-.737.253-.737.731v3.292c0 .479.227.732.737.732h3.202c2.663 0 3.825-1.21 4.619-3.517 1.077-3.152 1.672-8.414 1.898-10.58.057-.422.142-.845.794-.845h5.781c.368 0 .51.141.51.479v13.731c0 .479.226.732.736.732h3.684c.482 0 .737-.253.737-.732V87.864c0-1.773-.765-2.561-2.834-2.561H142.08Zm25.099 0c-1.983 0-2.522 1.07-2.72 2.617-.68 5.543-1.049 8.413-1.644 10.27-.566 1.745-1.275 2.055-1.927 2.055h-2.295c-.51 0-.737.253-.737.731v3.292c0 .479.227.732.737.732h3.202c2.664 0 3.826-1.21 4.619-3.517 1.077-3.152 1.672-8.414 1.899-10.58.057-.422.142-.845.793-.845h5.781c.368 0 .51.141.51.479v13.731c0 .479.227.732.737.732h3.684c.482 0 .737-.253.737-.732V87.864c0-1.773-.766-2.561-2.834-2.561h-10.542Zm15.975 0c-.623 0-.623.478-.396.844l8.869 13.45c-.368.451-.878.648-2.04.648h-2.834c-.51 0-.765.253-.765.731v3.292c0 .479.255.732.765.732h2.891c2.096 0 4.137-.45 5.61-2.814l10.173-16.01c.199-.338.227-.873-.396-.873h-3.713c-.963 0-1.133.281-1.388.704l-5.696 9.341-5.979-9.567c-.227-.365-.51-.478-1.048-.478h-4.053Zm25.31 0c-.567 0-.85.281-.85.844v18.121c0 .479.255.732.736.732h3.684c.482 0 .737-.253.737-.732v-5.036h11.023c4.449 0 6.206-2.026 6.206-5.825v-2.28c0-3.798-1.757-5.824-6.206-5.824h-15.33Zm4.307 4.924c0-.225.113-.337.34-.337h9.663c1.559 0 2.069.619 2.069 1.941v1.041c0 1.35-.51 1.97-2.069 1.97h-10.003v-4.615Z"/></svg><svg viewBox="0 0 50 50" id="viber" xmlns="http://www.w3.org/2000/svg"><g fill-rule="evenodd" clip-rule="evenodd"><path d="M34.294 16.547c2.086 1.863 3.242 5.981 2.46 12.505-.683 5.755-4.593 6.775-5.906 7.117a5.49 5.49 0 0 0-.306.085c-.355.117-3.475.918-7.537.568l-.404.48c-2.068 2.454-2.424 2.877-3.16 2.64-.683-.213-.643-1.273-.643-1.273l.006-2.619h-.006c-5.935-1.714-5.852-8.034-5.782-11.408.07-3.372.706-6.097 2.515-7.953 4.028-3.795 15.397-3.324 18.764-.143l-.001.001Zm-9.465 2.118c-.42 0-.42.65 0 .655 3.258.025 5.942 2.278 5.971 6.412 0 .436.644.43.638-.005-.034-4.454-2.966-7.037-6.61-7.062Zm4.286 6.382c-.01.43.633.451.638.015.053-2.456-1.473-4.479-4.34-4.692-.42-.03-.464.624-.046.655 2.488.187 3.798 1.871 3.748 4.022Zm-.688 2.793c-.538-.31-1.087-.116-1.314.188l-.475.609c-.24.31-.691.268-.691.268-3.288-.862-4.168-4.276-4.168-4.276s-.04-.462.261-.71l.594-.487c.296-.234.484-.797.182-1.35-.609-1.091-1.067-1.643-1.374-2.013a6.15 6.15 0 0 1-.252-.316c-.29-.36-.726-.442-1.18-.198H20c-.944.547-1.977 1.573-1.646 2.628.098.193.21.459.345.78.646 1.536 1.828 4.344 4.559 6.56 1.552 1.267 4.009 2.566 5.052 2.866l.01.015c1.027.34 2.026-.726 2.56-1.69v-.008c.237-.466.158-.908-.188-1.197-.613-.593-1.538-1.248-2.265-1.669Zm-.954-3.334c-.055-1.116-.563-1.66-1.611-1.72-.425-.025-.385-.68.035-.655 1.379.076 2.144.887 2.214 2.344.02.436-.618.467-.638.03Z"/><path d="M50 25c0 13.807-11.193 25-25 25S0 38.807 0 25 11.193 0 25 0s25 11.193 25 25Zm-2 0c0 12.703-10.297 23-23 23S2 37.703 2 25 12.297 2 25 2s23 10.297 23 23Z"/></g></svg><svg viewBox="0 0 50 50" id="vk" xmlns="http://www.w3.org/2000/svg"><path fill-rule="evenodd" clip-rule="evenodd" d="M25 48c12.703 0 23-10.297 23-23S37.703 2 25 2 2 12.297 2 25s10.297 23 23 23Zm0 2c13.807 0 25-11.193 25-25S38.807 0 25 0 0 11.193 0 25s11.193 25 25 25Z"/><path d="M34.957 29.92c-.523-.634-1.117-1.2-1.691-1.75-.204-.195-.415-.396-.619-.597-.584-.576-.605-.793-.143-1.448.32-.451.66-.903.988-1.34.297-.397.605-.807.9-1.219l.06-.084c.565-.788 1.148-1.602 1.458-2.584.08-.26.166-.64-.028-.96-.193-.318-.568-.415-.834-.46a2.255 2.255 0 0 0-.382-.026l-3.693-.003h-.03c-.56 0-.935.265-1.151.812a22.469 22.469 0 0 1-.69 1.606c-.514 1.053-1.166 2.265-2.11 3.276l-.04.043c-.11.12-.237.258-.33.258a.157.157 0 0 1-.046-.009c-.196-.077-.327-.554-.32-.776v-.01l-.003-4.307a.35.35 0 0 0-.003-.044c-.094-.7-.302-1.136-1.089-1.292a.323.323 0 0 0-.063-.006h-3.84c-.625 0-.97.257-1.294.64-.088.103-.27.317-.18.576.092.264.39.32.486.338.48.092.751.389.828.907.134.9.15 1.86.052 3.022a2.556 2.556 0 0 1-.172.786c-.02.05-.094.212-.17.212-.023 0-.093-.01-.219-.097-.298-.206-.515-.5-.77-.863-.864-1.233-1.59-2.59-2.218-4.152-.233-.575-.668-.897-1.225-.907-.613-.01-1.169-.014-1.699-.014-.579 0-1.115.006-1.64.017-.448.008-.759.143-.922.404-.163.26-.153.602.032 1.015 1.477 3.315 2.817 5.725 4.344 7.815 1.07 1.463 2.142 2.475 3.376 3.186 1.3.75 2.756 1.115 4.453 1.115.192 0 .39-.005.591-.014.986-.049 1.352-.409 1.398-1.377.022-.495.076-1.014.317-1.457.152-.28.294-.28.34-.28.09 0 .202.043.321.12.215.142.399.331.55.497.142.157.282.316.423.475.303.342.616.697.944 1.033.717.736 1.506 1.06 2.414.99h3.385a.986.986 0 0 0 .823-.519c.214-.38.21-.866-.01-1.298-.25-.489-.575-.907-.86-1.25Z"/></svg><svg viewBox="0 0 50 50" id="whatsapp" xmlns="http://www.w3.org/2000/svg"><g fill-rule="evenodd" clip-rule="evenodd"><path d="M25.05 13a11.901 11.901 0 0 1 8.453 3.488A11.792 11.792 0 0 1 37 24.9c-.003 6.558-5.364 11.893-11.95 11.893h-.005c-2-.001-3.965-.5-5.71-1.448L13 37l1.695-6.163a11.828 11.828 0 0 1-1.595-5.945C13.103 18.335 18.464 13 25.05 13Zm5.45 14.382c-.3-.149-1.767-.867-2.04-.967-.274-.099-.473-.148-.672.15-.2.297-.772.966-.946 1.164-.174.199-.348.223-.647.075a4.417 4.417 0 0 0-.197-.089 7.73 7.73 0 0 1-2.204-1.386c-.888-.788-1.487-1.761-1.661-2.059-.174-.297-.019-.458.13-.606.09-.089.193-.214.296-.338.052-.063.103-.125.153-.183.127-.147.182-.26.257-.411l.041-.085c.1-.198.05-.371-.025-.52-.05-.1-.332-.785-.589-1.407l-.331-.8c-.214-.511-.431-.51-.605-.509h-.067c-.174-.01-.373-.011-.572-.011a1.1 1.1 0 0 0-.797.372 6.29 6.29 0 0 1-.058.062c-.31.33-.986 1.048-.986 2.417 0 1.454 1.058 2.86 1.216 3.07l.003.004.052.074c.358.51 2.25 3.21 5.048 4.413a17.3 17.3 0 0 0 1.703.626c.715.226 1.366.194 1.88.117.574-.085 1.767-.718 2.016-1.413.248-.694.248-1.289.174-1.413-.06-.1-.2-.167-.41-.267-.05-.025-.104-.05-.162-.08Z"/><path d="M50 25c0 13.807-11.193 25-25 25S0 38.807 0 25 11.193 0 25 0s25 11.193 25 25Zm-2 0c0 12.703-10.297 23-23 23S2 37.703 2 25 12.297 2 25 2s23 10.297 23 23Z"/></g></svg></svg>