<?xml version="1.0" standalone="no"?>
<!DOCTYPE svg PUBLIC "-//W3C//DTD SVG 20010904//EN"
 "http://www.w3.org/TR/2001/REC-SVG-20010904/DTD/svg10.dtd">
<svg version="1.0" xmlns="http://www.w3.org/2000/svg"
 width="1184.000000pt" height="1184.000000pt" viewBox="0 0 1184.000000 1184.000000"
 preserveAspectRatio="xMidYMid meet">
<metadata>
Created by potrace 1.14, written by Peter Selinger 2001-2017
</metadata>
<g transform="translate(0.000000,1184.000000) scale(0.100000,-0.100000)"
fill="#000000" stroke="none">
<path d="M5778 11834 c-2 -2 -13 -5 -24 -7 -58 -11 -114 -31 -114 -40 0 -6 -3
-7 -7 -4 -6 6 -82 -33 -108 -55 -23 -20 -449 -298 -457 -298 -4 0 -8 -4 -8 -8
0 -5 -16 -16 -35 -25 -19 -9 -35 -21 -35 -27 0 -5 -6 -10 -13 -10 -7 0 -22 -7
-32 -15 -11 -8 -69 -48 -130 -88 -60 -39 -111 -75 -113 -79 -2 -5 -8 -8 -13
-8 -5 0 -85 -51 -178 -114 -94 -63 -174 -116 -178 -118 -20 -8 -338 -224 -341
-230 -2 -5 -8 -8 -13 -8 -10 0 -62 -35 -87 -57 -7 -7 -20 -13 -28 -13 -8 0
-14 -4 -14 -10 0 -5 -6 -10 -14 -10 -8 0 -16 -4 -18 -8 -1 -5 -48 -37 -103
-73 -148 -97 -147 -96 -193 -129 -23 -16 -45 -30 -48 -30 -4 0 -23 -13 -44
-30 -21 -16 -42 -30 -46 -30 -5 0 -20 -9 -34 -21 -14 -11 -96 -67 -182 -123
-87 -57 -168 -110 -180 -119 -13 -9 -65 -45 -117 -79 -84 -54 -201 -160 -201
-180 0 -3 -6 -13 -12 -20 -22 -22 -58 -105 -79 -175 -18 -65 -19 -109 -16
-1208 1 -627 5 -1149 9 -1160 4 -11 11 -33 16 -50 16 -51 61 -138 90 -174 44
-55 82 -94 82 -85 0 5 7 -1 15 -13 31 -45 190 -118 285 -131 63 -8 5607 -6
5650 3 240 48 434 255 468 500 5 33 8 555 7 1160 -3 1214 1 1145 -66 1281 -35
70 -119 168 -181 210 -24 16 -47 32 -53 37 -5 4 -100 67 -210 139 -110 73
-201 136 -203 140 -2 4 -8 8 -14 8 -5 0 -22 9 -38 20 l-27 20 -1 567 c0 313
-2 580 -5 594 -18 93 -105 189 -197 217 -54 16 -98 18 -452 17 -369 -1 -468
-6 -468 -25 0 -4 -12 -11 -26 -14 -33 -9 -94 -71 -118 -121 -10 -22 -22 -47
-27 -56 -4 -9 -8 -312 -8 -674 0 -362 -2 -660 -5 -663 -3 -3 -8 4 -12 14 -3
10 -9 28 -14 39 -14 35 -35 90 -36 95 -1 8 -15 42 -30 77 -8 17 -14 34 -14 38
0 4 -6 21 -14 38 -8 18 -36 88 -62 157 l-48 125 0 299 c-1 187 -5 301 -11 303
-6 2 -156 100 -333 218 -178 118 -326 215 -329 215 -3 0 -17 8 -31 19 -23 15
-96 44 -152 59 -21 5 -218 11 -222 6z"/>
<path d="M2856 6048 c-128 -18 -252 -131 -284 -258 -18 -72 -16 -941 3 -1003
27 -89 70 -149 144 -198 91 -60 62 -58 1014 -59 598 -1 875 -5 884 -12 7 -6
13 -8 13 -5 0 13 165 -53 180 -72 3 -3 21 -17 40 -30 68 -45 167 -191 187
-276 18 -76 24 -188 12 -249 -4 -24 -10 -68 -13 -97 -3 -30 -8 -63 -10 -75 -5
-26 -18 -119 -21 -159 -2 -16 -8 -59 -14 -95 -5 -36 -13 -87 -16 -115 -4 -27
-9 -63 -12 -80 -3 -16 -6 -43 -8 -60 -3 -36 -13 -107 -26 -193 -5 -34 -12 -84
-15 -110 -8 -66 -12 -97 -14 -97 -1 0 -3 -13 -5 -30 -7 -66 -15 -131 -19 -150
-2 -11 -7 -42 -10 -70 -3 -27 -9 -66 -11 -85 -8 -50 -15 -100 -20 -140 -3 -19
-6 -48 -9 -65 -12 -88 -19 -143 -22 -170 -1 -16 -3 -30 -4 -30 -1 0 -3 -13 -5
-30 -2 -16 -7 -50 -11 -75 -3 -25 -7 -56 -9 -70 -13 -99 -34 -249 -41 -284 -7
-38 -16 -182 -16 -246 2 -120 18 -215 57 -331 29 -84 77 -193 87 -197 4 -2 8
-8 8 -13 0 -6 23 -44 52 -87 64 -95 201 -232 294 -293 80 -53 184 -111 184
-102 0 3 6 0 13 -6 15 -12 146 -56 210 -71 104 -23 305 -32 392 -17 22 4 56 9
75 12 19 4 50 11 68 17 18 5 39 11 45 12 37 7 70 19 157 60 188 88 359 236
473 408 46 70 134 247 137 276 0 4 6 25 12 47 6 22 12 49 14 60 2 11 5 31 9
45 9 43 16 119 17 188 1 71 -10 231 -17 242 -2 3 -6 33 -10 66 -3 32 -7 68 -9
79 -4 20 -13 88 -21 155 -2 19 -4 35 -5 35 -1 0 -4 14 -6 30 -2 17 -6 46 -9
65 -3 19 -7 55 -10 80 -3 25 -7 61 -10 80 -3 19 -8 53 -11 75 -3 22 -7 49 -8
60 -2 11 -7 47 -11 80 -3 33 -9 74 -12 90 -3 17 -6 44 -8 60 -7 57 -15 120
-20 150 -3 17 -7 46 -9 65 -3 19 -10 69 -16 110 -6 41 -13 93 -15 115 -2 22
-5 54 -8 70 -7 39 -26 176 -33 240 -3 28 -7 56 -10 64 -3 8 -7 38 -10 67 -2
28 -7 62 -9 75 -3 13 -7 48 -11 77 -3 29 -7 63 -10 75 -2 12 -7 49 -10 82 -4
33 -8 63 -10 67 -5 7 -17 151 -17 188 0 27 9 22 -262 151 -38 18 -73 32 -77
31 -5 -1 -8 3 -8 8 0 6 -5 10 -11 10 -5 0 -54 21 -107 47 -53 26 -99 47 -102
48 -3 1 -50 23 -105 50 -55 26 -102 49 -105 50 -3 0 -45 20 -94 43 -49 23 -93
42 -97 42 -5 0 -9 4 -9 9 0 5 -8 11 -17 13 -10 2 313 5 717 7 404 2 942 5
1195 7 253 2 654 5 890 6 l430 3 50 25 c42 21 123 91 161 141 13 18 34 74 42
114 7 39 7 908 -1 957 -19 122 -138 243 -268 274 -41 9 -5986 12 -6053 2z
m3139 -4172 c117 -28 269 -154 312 -258 43 -108 42 -104 47 -191 3 -74 -5
-129 -29 -192 -53 -143 -184 -261 -332 -299 -83 -22 -214 -15 -289 16 -199 80
-315 249 -314 458 0 133 52 252 151 348 47 45 161 108 212 118 17 3 33 7 35 9
7 6 173 -1 207 -9z"/>
</g>
</svg>
