<svg width="152" height="30" viewBox="0 0 152 30" fill="none" xmlns="http://www.w3.org/2000/svg">
<path d="M3.17379 22.4056C2.42817 23.4198 1.66749 24.419 0.921875 25.4182V25.9856H3.02316C4.05246 24.6148 4.58971 23.8994 4.58971 23.0734H6.64831V25.9856H8.61654V23.0734H10.6751C10.6751 23.8943 11.2124 24.6098 12.2417 25.9856H14.343V25.4182L12.076 22.4056C13.984 20.9746 13.984 20.9746 13.984 19.0918V18.4666H11.8375V19.0918C11.8375 21.3738 11.8375 21.3738 9.60065 21.3738H8.61654V18.4616H6.64831V21.3738H5.6642C3.42735 21.3738 3.42735 21.3738 3.42735 19.0918V18.4666H1.28087V19.0918C1.28087 20.9696 1.28088 20.9696 3.17379 22.4056Z" fill="#231F20"/>
<path fill-rule="evenodd" clip-rule="evenodd" d="M18.2367 21.4014C18.2367 19.747 18.2367 19.747 20.0694 19.747C21.9021 19.747 21.9021 19.747 21.9021 21.4014H18.2367ZM18.2367 22.742H20.0694C21.9924 22.727 22.5598 22.7571 23.2075 22.6077L23.9682 22.429V21.6984C23.9682 20.4607 23.9682 18.1335 20.4284 18.1335H19.7129C16.1731 18.1335 16.1731 20.4582 16.1731 21.7235V22.439C16.1731 23.7796 16.2027 26.029 20.0895 26.029C20.6719 26.029 21.9824 26.029 23.4033 25.6725V24.0633H23.0017L21.5707 24.4198H20.0493C18.2167 24.4193 18.2167 24.4193 18.2167 22.7654L18.2367 22.742Z" fill="#231F20"/>
<path d="M27.2745 18.3386C27.2745 19.4708 27.1852 22.8826 25.3967 25.2676V25.85H27.5883C28.8863 24.1203 28.8863 21.8583 28.8863 20.0006H31.9742V25.85H33.9424V18.3436H27.2896" fill="#231F20"/>
<path fill-rule="evenodd" clip-rule="evenodd" d="M38.3207 21.4014C38.3207 19.747 38.3207 19.747 40.1559 19.747C41.9885 19.747 41.9885 19.747 41.9885 21.4014H38.3232M38.3232 22.742H40.1584C42.0814 22.727 42.6488 22.7571 43.2965 22.6077L44.0572 22.429V21.6984C44.0572 20.4607 44.0572 18.1335 40.5174 18.1335H39.8019C36.2621 18.1335 36.2621 20.4582 36.2621 21.7235V22.439C36.2621 23.7796 36.2917 26.029 40.1785 26.029C40.7609 26.029 42.0714 26.029 43.4923 25.6725V24.0633H43.0906L41.6597 24.4198H40.1383C38.3056 24.4193 38.3056 24.4193 38.3056 22.7654L38.3232 22.742Z" fill="#231F20"/>
<path d="M51.3753 22.1546V21.9309C52.8966 21.5443 52.8966 20.6053 52.8966 20.2463C52.8966 19.5308 52.8966 18.0999 49.2815 18.0999C48.7443 18.0999 47.4916 18.0999 46.0681 18.4589V20.0681H46.4698L47.9008 19.7091H49.5552C50.7025 19.7091 50.7627 19.7091 50.7627 20.5426C50.7627 21.3635 50.7627 21.3635 49.5552 21.3635H47.9008V22.7041H49.5552C50.7025 22.7041 50.7627 22.7041 50.7627 23.525C50.7627 24.361 50.7627 24.361 49.5552 24.361H47.9008L46.4698 24.002H46.0681V25.6113C47.4991 25.9678 48.7543 25.9678 49.2815 25.9678C52.8966 25.9678 52.8966 24.5368 52.8966 23.8213C52.8966 23.4648 52.8966 22.5259 51.3753 22.1518" fill="#231F20"/>
<path d="M61.1662 18.3386V21.1504H57.1494V18.3386H55.141V25.9203H57.1494V22.9077H61.1662V25.9203H62.9235V18.3386H61.1662Z" fill="#231F20"/>
<path fill-rule="evenodd" clip-rule="evenodd" d="M69.1998 22.1546C70.7663 22.1546 70.7663 22.1546 70.7663 23.3169C70.7663 24.4793 70.7663 24.4793 69.1998 24.4793H67.6332V22.1546H69.1998ZM76.2291 18.3888H74.2609V25.8952H76.2291V18.3888ZM69.4759 25.8952C71.8458 25.8952 72.84 25.373 72.84 23.3345C72.84 22.2173 72.84 20.5981 69.7521 20.5981C69.3052 20.5981 68.5445 20.6433 67.6508 20.8667V18.3612H65.6826V25.8676H69.4734L69.4759 25.8952Z" fill="#231F20"/>
<path fill-rule="evenodd" clip-rule="evenodd" d="M80.748 21.4014C80.748 19.747 80.748 19.747 82.5807 19.747C84.4134 19.747 84.4134 19.747 84.4134 21.4014H80.748ZM80.748 22.742H82.5807C84.5037 22.727 85.0711 22.7571 85.7188 22.6077L86.4795 22.429V21.6984C86.4795 20.4607 86.4795 18.1335 82.9397 18.1335H82.2242C78.6844 18.1335 78.6844 20.4582 78.6844 21.7235V22.439C78.6844 23.7796 78.7143 26.029 82.6008 26.029C83.1832 26.029 84.4937 26.029 85.9146 25.6725V24.0633H85.5129L84.082 24.4198H82.5606C80.7279 24.4193 80.728 24.4193 80.728 22.7654L80.748 22.742Z" fill="#231F20"/>
<path fill-rule="evenodd" clip-rule="evenodd" d="M94.5557 21.9035C94.5557 19.8901 94.5557 19.9353 97.2169 19.9353C97.5759 19.9353 98.0679 19.9797 98.6629 20.114V23.3275L96.7549 23.8045C94.5482 23.8047 94.5482 23.8047 94.5482 21.8965M93.3858 27.0932V28.7928C94.8168 29.1518 95.9717 29.1518 96.4235 29.1518C100.491 29.1518 100.616 27.392 100.616 25.3861V18.4069H99.9734L99.0194 19.1224C98.3642 18.2713 96.7675 18.2437 96.2579 18.2437C92.467 18.2437 92.467 20.6287 92.467 21.7082V22.0672C92.467 23.3199 92.467 25.3811 95.6804 25.3811C96.6495 25.3811 97.7968 25.1124 98.6428 24.4873V25.1124C98.6428 27.4221 98.5981 27.4371 96.2277 27.4371H95.1984L93.7674 27.0781H93.3658L93.3858 27.0932Z" fill="#231F20"/>
<path fill-rule="evenodd" clip-rule="evenodd" d="M106.606 18.1629C102.815 18.1629 102.815 20.3997 102.815 21.7529V22.4684C102.815 23.809 102.815 26.0584 106.606 26.0584H107.322C111.112 26.0584 111.112 23.8215 111.112 22.4684V21.7529C111.112 20.4123 111.112 18.1629 107.322 18.1629H106.606ZM106.963 19.8173C109.064 19.8173 109.064 19.8173 109.064 22.0993C109.064 24.3814 109.064 24.3814 106.963 24.3814C104.861 24.3814 104.861 24.3814 104.861 22.0993C104.861 19.8173 104.861 19.8173 106.963 19.8173Z" fill="#231F20"/>
<path fill-rule="evenodd" clip-rule="evenodd" d="M119.41 22.1546C119.41 24.3914 119.41 24.3914 117.218 24.3914C116.681 24.3914 115.995 24.3914 115.295 24.2124V20.4467L117.203 19.9697C119.41 19.9697 119.41 19.9993 119.41 22.1463M113.334 18.3805V28.9246H115.302V25.661C116.196 25.8847 116.912 26.0627 117.989 26.0627C121.478 26.0627 121.478 23.5019 121.478 22.4726V21.7572C121.478 20.5044 121.478 18.1671 118.215 18.1671C116.545 18.1671 115.579 18.8977 115.051 19.2994L114.336 18.3454H113.352L113.334 18.3805Z" fill="#231F20"/>
<path fill-rule="evenodd" clip-rule="evenodd" d="M127.443 18.1629C123.652 18.1629 123.652 20.3997 123.652 21.7529V22.4684C123.652 23.809 123.652 26.0584 127.443 26.0584H128.159C131.95 26.0584 131.95 23.8215 131.95 22.4684V21.7529C131.95 20.4123 131.95 18.1629 128.159 18.1629H127.443ZM127.8 19.8173C129.901 19.8173 129.901 19.8173 129.901 22.0993C129.901 24.3814 129.901 24.3814 127.8 24.3814C125.698 24.3814 125.698 24.3814 125.698 22.0993C125.698 19.8173 125.698 19.8173 127.8 19.8173Z" fill="#231F20"/>
<path d="M137.736 18.1629C137.021 18.1629 136.082 18.1629 134.648 18.5219V20.1311H135.05L136.481 19.7746H138.314C139.298 19.7746 139.298 19.7746 139.298 20.342C139.298 20.7286 139.298 20.8491 138.537 20.9822L136.747 21.429C135.718 21.6826 134.287 22.0692 134.287 23.6207C134.287 24.65 134.287 26.0358 137.902 26.0358C138.617 26.0358 139.556 26.0358 140.99 25.6793V24.0701H140.588C139.991 24.234 139.426 24.3688 139.202 24.4291H137.325C136.34 24.4291 136.34 24.4291 136.34 23.8617C136.34 23.5203 136.34 23.445 136.757 23.3244L137.756 23.0558L138.889 22.7721C139.918 22.5186 141.349 22.147 141.349 20.5805C141.349 19.5512 141.349 18.1654 137.734 18.1654" fill="#231F20"/>
<path d="M150.54 26.1713L152.001 25.0818C151.464 24.3663 151.464 24.3663 151.464 23.0985V18.4541H149.495V23.9019L147.587 24.3789C145.559 24.3789 145.559 24.3789 145.559 22.3077V18.4415H143.591V22.609C143.591 24.0851 143.591 26.1488 146.578 26.1488C148.145 26.1488 149.114 25.4182 149.641 25.0165L150.52 26.1789" fill="#231F20"/>
<path fill-rule="evenodd" clip-rule="evenodd" d="M1.41643 0.388571V10.9326H3.5629V8.02047H5.26251C8.17469 8.02047 10.4592 8.02047 10.4592 4.20452C10.4592 0.363466 8.1772 0.363466 5.26251 0.363466H1.42145M3.56793 6.1376V2.24634H6.15374C8.07677 2.24634 8.16716 2.24634 8.16716 4.1995C8.16716 6.09241 8.16715 6.1376 6.15374 6.1376H3.56793Z" fill="#231F20"/>
<path fill-rule="evenodd" clip-rule="evenodd" d="M15.9773 3.25053C12.1864 3.25053 12.1864 5.48738 12.1864 6.84054V7.55603C12.1864 8.89663 12.1864 11.146 15.9773 11.146H16.6928C20.4836 11.146 20.4836 8.90919 20.4836 7.55603V6.84054C20.4836 5.49994 20.4836 3.25053 16.6928 3.25053H15.9773ZM16.3338 4.90495C18.4351 4.90495 18.4351 4.90495 18.4351 7.18699C18.4351 9.46903 18.4351 9.46903 16.3338 9.46903C14.2325 9.46903 14.2325 9.46903 14.2325 7.18699C14.2325 4.90495 14.2325 4.90495 16.3338 4.90495Z" fill="#231F20"/>
<path d="M26.2703 11.1335C26.8076 11.1335 28.1934 11.1335 29.6344 10.7745V9.16526H29.2327L27.7867 9.52175H26.9381C24.4477 9.52175 24.4477 9.52175 24.4477 7.19703C24.4477 4.87231 24.4477 4.87231 26.2804 4.87231C27.8318 4.87231 27.8318 4.87231 28.2034 6.34848L29.9934 5.90161C29.9934 5.18612 29.9934 3.2656 26.6293 3.2656H25.9138C22.374 3.2656 22.374 5.50245 22.374 6.8556V7.57109C22.374 8.9117 22.374 11.1611 26.2653 11.1611" fill="#231F20"/>
<path d="M35.8102 11.1335C36.3474 11.1335 37.7332 11.1335 39.1743 10.7745V9.16526H38.7726L37.3265 9.52175H36.478C33.9876 9.52175 33.9876 9.52175 33.9876 7.19703C33.9876 4.87231 33.9876 4.87231 35.8202 4.87231C37.3717 4.87231 37.3717 4.87231 37.7433 6.34848L39.5333 5.90161C39.5333 5.18612 39.5333 3.2656 36.1692 3.2656H35.4537C31.9139 3.2656 31.9139 5.50245 31.9139 6.8556V7.57109C31.9139 8.9117 31.9139 11.1611 35.8052 11.1611" fill="#231F20"/>
<path d="M48.3627 11.1586L49.8238 10.069C49.2865 9.35355 49.2865 9.35355 49.2865 8.08575V3.44134H47.3183V8.88911L45.4103 9.3661C43.3819 9.3661 43.3819 9.3661 43.3819 7.29495V3.42878H41.4136V7.5962C41.4136 9.07237 41.4136 11.136 44.4011 11.136C45.9677 11.136 46.9367 10.4054 47.4639 10.0038L48.3426 11.1661" fill="#231F20"/>
<path fill-rule="evenodd" clip-rule="evenodd" d="M55.392 0.765151C54.423 0.765151 54.423 0.765151 53.946 0.227905L53.0824 0.898207C54.0213 2.10575 54.4983 2.19613 55.869 2.19613H56.1979C57.5536 2.19613 58.0456 2.10651 58.9595 0.898207L58.0959 0.227905C57.6339 0.765151 57.6339 0.765151 56.6498 0.765151H55.382M59.0222 11.1837L60.4833 10.0941C59.9461 9.37865 59.9461 9.37866 59.9461 8.11086V3.46644H57.9779V8.91421L56.0699 9.39121C54.0866 9.39121 54.0414 9.39121 54.0414 7.32005V3.45389H52.0732V7.62131C52.0732 9.09748 52.0732 11.1611 55.0607 11.1611C56.6272 11.1611 57.5963 10.4306 58.1235 10.0289L59.0021 11.1912L59.0222 11.1837Z" fill="#231F20"/>
<path d="M66.1872 11.1335C66.7244 11.1335 68.1102 11.1335 69.5512 10.7745V9.16526H69.1496L67.7035 9.52175H66.8525C64.362 9.52175 64.362 9.52175 64.362 7.19703C64.362 4.87231 64.362 4.87231 66.1947 4.87231C67.7462 4.87231 67.7462 4.87231 68.1177 6.34848L69.9077 5.90161C69.9077 5.18612 69.9077 3.2656 66.5437 3.2656H65.8282C62.2884 3.2656 62.2884 5.50245 62.2884 6.8556V7.57109C62.2886 8.9117 62.2886 11.1611 66.1796 11.1611" fill="#231F20"/>
<path d="M72.2124 3.45138V10.9578H74.1806V8.04559H76.5957C76.5957 8.86652 77.1329 9.58201 78.1597 10.9578H80.261V10.3904L77.994 7.3778C79.902 5.94681 79.902 5.94682 79.902 4.06394V3.43883H77.7555V4.06394C77.7555 6.34598 77.7555 6.34598 75.5187 6.34598H74.1781V3.43381H72.2098" fill="#231F20"/>
<path d="M89.2837 11.1586L90.7448 10.069C90.2076 9.35355 90.2076 9.35355 90.2076 8.08575V3.44134H88.2394V8.88911L86.3314 9.3661C84.3029 9.3661 84.3029 9.3661 84.3029 7.29495V3.42878H82.3347V7.5962C82.3347 9.07237 82.3347 11.136 85.3222 11.136C86.8887 11.136 87.8578 10.4054 88.385 10.0038L89.2636 11.1661" fill="#231F20"/>
<path fill-rule="evenodd" clip-rule="evenodd" d="M94.5558 6.51418C94.5558 4.85977 94.5558 4.85977 96.3909 4.85977C98.2236 4.85977 98.2236 4.85977 98.2236 6.51418H94.5583M94.5583 7.85479H96.3934C98.3165 7.83973 98.8839 7.86985 99.5316 7.72048L100.292 7.54173V6.81118C100.292 5.5735 100.292 3.24627 96.7524 3.24627H96.037C92.4972 3.24627 92.4972 5.57099 92.4972 6.83628V7.55177C92.4972 8.89237 92.527 11.1418 96.4135 11.1418C96.996 11.1418 98.3064 11.1418 99.7274 10.7828V9.17355H99.3257L97.8947 9.53004H96.3734C94.5382 9.52979 94.5382 9.52979 94.5382 7.87563L94.5583 7.85479Z" fill="#231F20"/>
</svg>
