<svg width="86" height="86" viewBox="0 0 86 86" fill="none" xmlns="http://www.w3.org/2000/svg">
<path d="M7.97925 13.1785C10.7291 13.1785 12.9585 10.9493 12.9585 8.19922C12.9585 5.44918 10.7291 3.21997 7.97925 3.21997C5.22938 3.21997 3 5.44918 3 8.19922C3 10.9493 5.22938 13.1785 7.97925 13.1785ZM7.97925 13.1785L7.97852 23.1371M78.0215 13.1786V23.1371M73.042 78.2406H12.959M12.959 28.1163H28.0627C28.0627 28.1163 34.7505 23.1371 43.0005 23.1371C51.2504 23.1371 57.9382 28.1163 57.9382 28.1163H73.042M28.0625 85.7096V20.6474M57.9375 20.6474V85.7096M43 15.6681V48.1992M43 58.1577V85.7096M12.9585 83.22H3V23.137H12.9585V83.22ZM82.9995 8.19934C82.9995 10.9494 80.7701 13.1786 78.0203 13.1786C75.2704 13.1786 73.041 10.9494 73.041 8.19934C73.041 5.4493 75.2704 3.22009 78.0203 3.22009C80.7701 3.22009 82.9995 5.4493 82.9995 8.19934ZM82.9995 83.2198H73.041V23.1369H82.9995V83.2198ZM47.98 58.1578H38.0215V48.1993H47.98V58.1578Z" stroke="white" stroke-width="5" stroke-miterlimit="10"/>
</svg>
