<svg width="90" height="40" viewBox="0 0 90 40" fill="none" xmlns="http://www.w3.org/2000/svg">
<path d="M63.2645 3.56014V5.00869H75.6914C76.5199 5.00869 77.7626 5.00869 78.5785 5.83716C79.3944 6.66562 79.4069 7.90831 79.4069 8.72423V21.1512C79.4069 21.9796 79.4069 23.2223 78.5785 24.0382C77.75 24.8667 76.5073 24.8667 75.6914 24.8667H69.6913C68.657 24.8667 67.3089 24.8667 66.8043 23.7269C66.2871 22.5872 67.0111 21.5528 67.6327 20.7143L75.7165 9.94433H63.2896L58.3188 16.572C57.4853 17.6817 56.7648 18.6432 56.7648 19.8859C56.7648 21.1286 57.4351 22.0223 58.3188 23.1997L59.5615 24.8567C60.8042 26.5136 62.0469 28.1705 63.7038 28.999C65.3607 29.8274 67.3189 29.8274 70.0303 29.8274H75.4027C78.5157 29.8274 83.1601 29.8274 86.2731 26.7144C89.3861 23.6014 89.3862 19.0574 89.3862 17.4005V12.4297C89.3862 10.7728 89.3861 6.22879 86.2731 3.11578C83.1601 0.00276984 78.5157 0.00276984 75.4027 0.00276984L66.8168 8.30306e-06C65.9883 -0.000242746 64.954 8.31982e-06 64.1306 0.828471C63.3021 1.65693 63.3021 2.69126 63.3021 3.5147" fill="#C4151C"/>
<path d="M48.4525 9.987H60.7539L45.942 29.9203H33.6406L48.4525 9.987Z" fill="#C4151C"/>
<path d="M0 13.5017C0 12.6732 0 11.6389 0.828463 10.8155C1.65693 9.99202 2.69125 9.987 3.51469 9.987H24.3267C27.0129 9.987 28.9962 9.987 30.6531 10.8155C32.3101 11.6439 33.5402 13.3008 34.7954 14.9578L36.0381 16.6147C36.9193 17.7896 37.5921 18.6859 37.5921 19.9286C37.5921 21.1712 36.8716 22.1328 36.0381 23.2424L31.0674 29.8701H18.6404L26.7242 19.1001C27.3443 18.2716 28.0698 17.2373 27.5527 16.0875C27.0355 14.9477 25.6899 14.9477 24.6656 14.9477H14.9249V39.8016H4.98333V14.9477H0.0125525V13.4967" fill="#C4151C"/>
</svg>
